<svg width="25" height="25" viewBox="0 0 25 25" fill="none" xmlns="http://www.w3.org/2000/svg">
<path d="M3.78418 13.0908L13.0078 21.0962C13.0786 21.1572 13.1689 21.1914 13.2642 21.1914H15.4248C15.6055 21.1914 15.6885 20.9668 15.5518 20.8496L7.00195 13.4277L21.2891 13.4277C21.3965 13.4277 21.4844 13.3398 21.4844 13.2324V11.7676C21.4844 11.6602 21.3965 11.5723 21.2891 11.5723L7.0044 11.5723L15.5542 4.15039C15.6909 4.03076 15.6079 3.80859 15.4272 3.80859H13.1934C13.147 3.80859 13.1006 3.82568 13.0664 3.85742L3.78418 11.9092C3.69966 11.9827 3.6319 12.0734 3.58546 12.1754C3.53902 12.2773 3.51499 12.388 3.51499 12.5C3.51499 12.612 3.53902 12.7227 3.58546 12.8246C3.6319 12.9266 3.69966 13.0173 3.78418 13.0908V13.0908Z" fill="black"/>
</svg>
